<svg width="76" height="76" viewBox="0 0 76 76" fill="none" xmlns="http://www.w3.org/2000/svg">
<path d="M61.799 62.2749L59.3525 59.772L59.3461 59.7783L61.799 62.2749ZM14.216 62.2749L16.6724 59.7817C16.668 59.7773 16.6636 59.773 16.6591 59.7687L14.216 62.2749ZM4.24886 33.9469L7.72337 34.3686L7.72433 34.3605L4.24886 33.9469ZM71.749 33.9662L68.273 34.3754L68.2746 34.3886L71.749 33.9662ZM71.749 34.0387L73.3637 37.144C74.6546 36.4727 75.3956 35.0729 75.2248 33.628L71.749 34.0387ZM4.24886 34.0387L0.768556 33.6679C0.616153 35.0983 1.3544 36.4762 2.62966 37.1417L4.24886 34.0387ZM61.799 62.2749L64.2472 64.7762C65.0488 63.9916 65.4259 62.8703 65.2611 61.7607L61.799 62.2749ZM14.216 62.2749L10.7531 61.7664C10.5907 62.8725 10.9664 63.9897 11.7643 64.7728L14.216 62.2749ZM68.5 38.01C68.5 46.5346 65.0026 54.2491 59.3525 59.772L64.2456 64.7778C71.1927 57.987 75.5 48.488 75.5 38.01H68.5ZM59.3461 59.7783C53.8367 65.1912 46.3153 68.51 37.9989 68.51V75.51C48.2224 75.51 57.4858 71.4192 64.252 64.7715L59.3461 59.7783ZM37.9989 68.51C29.698 68.51 22.1617 65.19 16.6724 59.7817L11.7596 64.7681C18.5114 71.4203 27.7944 75.51 37.9989 75.51V68.51ZM16.6591 59.7687C10.9951 54.2472 7.5 46.5347 7.5 38.01H0.5C0.5 48.4879 4.80522 57.9888 11.7728 64.7811L16.6591 59.7687ZM7.5 38.01C7.5 36.7792 7.57849 35.5623 7.72336 34.3686L0.774351 33.5252C0.597422 34.9831 0.5 36.482 0.5 38.01H7.5ZM7.72433 34.3605C9.52328 19.2441 22.3996 7.51002 37.9989 7.51002V0.510017C18.8098 0.510017 2.98617 14.9394 0.77338 33.5333L7.72433 34.3605ZM37.9989 7.51002C53.6184 7.51002 66.4917 19.2442 68.273 34.3754L75.225 33.557C73.0332 14.9393 57.2065 0.510017 37.9989 0.510017V7.51002ZM68.2746 34.3886C68.42 35.5853 68.5 36.7845 68.5 38.01H75.5C75.5 36.4768 75.3998 34.9944 75.2234 33.5439L68.2746 34.3886ZM70.1343 30.9335C61.2111 35.5735 50.8657 38.3628 38.6521 38.3628V45.3628C51.9885 45.3628 63.4418 42.3034 73.3637 37.144L70.1343 30.9335ZM38.6521 38.3628C26.3686 38.3628 14.7321 35.5613 5.86805 30.9358L2.62966 37.1417C12.6107 42.35 25.3811 45.3628 38.6521 45.3628V38.3628ZM7.72916 34.4096C9.3794 18.9215 23.1799 7.12858 38.5656 7.50895L38.7386 0.511086C19.7846 0.0424976 2.81298 14.4803 0.768556 33.6679L7.72916 34.4096ZM38.5656 7.50895C54.0047 7.89064 66.4784 19.2623 68.2732 34.4495L75.2248 33.628C73.019 14.9627 57.639 0.978351 38.7386 0.511086L38.5656 7.50895ZM59.3509 59.7736C53.7926 65.2137 46.3735 68.51 37.9989 68.51V75.51C48.2922 75.51 57.4452 71.4336 64.2472 64.7762L59.3509 59.7736ZM37.9989 68.51C29.6399 68.51 22.2057 65.2126 16.6676 59.777L11.7643 64.7728C18.552 71.4348 27.7247 75.51 37.9989 75.51V68.51ZM17.6788 62.7834C19.1218 52.9578 28.1153 45.3628 38.6521 45.3628V38.3628C24.8614 38.3628 12.7319 48.292 10.7531 61.7664L17.6788 62.7834ZM38.6521 45.3628C48.9493 45.3628 56.842 52.7229 58.337 62.7891L65.2611 61.7607C63.2956 48.5269 52.678 38.3628 38.6521 38.3628V45.3628Z" fill="#4CE5B1"/>
</svg>
